<svg id="visual" viewBox="0 0 960 540" width="960" height="540" xmlns="http://www.w3.org/2000/svg" xmlns:xlink="http://www.w3.org/1999/xlink" version="1.1"><rect x="0" y="0" width="960" height="540" fill="#001220"></rect><path d="M0 389L13.3 386.3C26.7 383.7 53.3 378.3 80 369.7C106.7 361 133.3 349 160 353.5C186.7 358 213.3 379 240 376.5C266.7 374 293.3 348 320 330.5C346.7 313 373.3 304 400 302.8C426.7 301.7 453.3 308.3 480 316.8C506.7 325.3 533.3 335.7 560 349.7C586.7 363.7 613.3 381.3 640 390.5C666.7 399.7 693.3 400.3 720 398.7C746.7 397 773.3 393 800 380.7C826.7 368.3 853.3 347.7 880 351C906.7 354.3 933.3 381.7 946.7 395.3L960 409L960 541L946.7 541C933.3 541 906.7 541 880 541C853.3 541 826.7 541 800 541C773.3 541 746.7 541 720 541C693.3 541 666.7 541 640 541C613.3 541 586.7 541 560 541C533.3 541 506.7 541 480 541C453.3 541 426.7 541 400 541C373.3 541 346.7 541 320 541C293.3 541 266.7 541 240 541C213.3 541 186.7 541 160 541C133.3 541 106.7 541 80 541C53.3 541 26.7 541 13.3 541L0 541Z" fill="#fa7268"></path><path d="M0 329L13.3 340.7C26.7 352.3 53.3 375.7 80 397.7C106.7 419.7 133.3 440.3 160 444.5C186.7 448.7 213.3 436.3 240 423.2C266.7 410 293.3 396 320 386C346.7 376 373.3 370 400 385.8C426.7 401.7 453.3 439.3 480 449.8C506.7 460.3 533.3 443.7 560 418.7C586.7 393.7 613.3 360.3 640 352.8C666.7 345.3 693.3 363.7 720 381C746.7 398.3 773.3 414.7 800 422.2C826.7 429.7 853.3 428.3 880 433.8C906.7 439.3 933.3 451.7 946.7 457.8L960 464L960 541L946.7 541C933.3 541 906.7 541 880 541C853.3 541 826.7 541 800 541C773.3 541 746.7 541 720 541C693.3 541 666.7 541 640 541C613.3 541 586.7 541 560 541C533.3 541 506.7 541 480 541C453.3 541 426.7 541 400 541C373.3 541 346.7 541 320 541C293.3 541 266.7 541 240 541C213.3 541 186.7 541 160 541C133.3 541 106.7 541 80 541C53.3 541 26.7 541 13.3 541L0 541Z" fill="#f56a67"></path><path d="M0 443L13.3 445.3C26.7 447.7 53.3 452.3 80 457C106.7 461.7 133.3 466.3 160 458.7C186.7 451 213.3 431 240 411.5C266.7 392 293.3 373 320 373.8C346.7 374.7 373.3 395.3 400 405.2C426.7 415 453.3 414 480 421.8C506.7 429.7 533.3 446.3 560 435C586.7 423.7 613.3 384.3 640 380.8C666.7 377.3 693.3 409.7 720 429.2C746.7 448.7 773.3 455.3 800 447.8C826.7 440.3 853.3 418.7 880 418.2C906.7 417.7 933.3 438.3 946.7 448.7L960 459L960 541L946.7 541C933.3 541 906.7 541 880 541C853.3 541 826.7 541 800 541C773.3 541 746.7 541 720 541C693.3 541 666.7 541 640 541C613.3 541 586.7 541 560 541C533.3 541 506.7 541 480 541C453.3 541 426.7 541 400 541C373.3 541 346.7 541 320 541C293.3 541 266.7 541 240 541C213.3 541 186.7 541 160 541C133.3 541 106.7 541 80 541C53.3 541 26.7 541 13.3 541L0 541Z" fill="#f06167"></path><path d="M0 376L13.3 374.3C26.7 372.7 53.3 369.3 80 385C106.7 400.7 133.3 435.3 160 444C186.7 452.7 213.3 435.3 240 418.5C266.7 401.7 293.3 385.3 320 387.2C346.7 389 373.3 409 400 427.8C426.7 446.7 453.3 464.3 480 455.8C506.7 447.3 533.3 412.7 560 393.8C586.7 375 613.3 372 640 373.5C666.7 375 693.3 381 720 385.8C746.7 390.7 773.3 394.3 800 393.5C826.7 392.7 853.3 387.3 880 394.7C906.7 402 933.3 422 946.7 432L960 442L960 541L946.7 541C933.3 541 906.7 541 880 541C853.3 541 826.7 541 800 541C773.3 541 746.7 541 720 541C693.3 541 666.7 541 640 541C613.3 541 586.7 541 560 541C533.3 541 506.7 541 480 541C453.3 541 426.7 541 400 541C373.3 541 346.7 541 320 541C293.3 541 266.7 541 240 541C213.3 541 186.7 541 160 541C133.3 541 106.7 541 80 541C53.3 541 26.7 541 13.3 541L0 541Z" fill="#eb5967"></path><path d="M0 418L13.3 416.5C26.7 415 53.3 412 80 419.5C106.7 427 133.3 445 160 447C186.7 449 213.3 435 240 432.3C266.7 429.7 293.3 438.3 320 436.2C346.7 434 373.3 421 400 424.5C426.7 428 453.3 448 480 444.7C506.7 441.3 533.3 414.7 560 410.7C586.7 406.7 613.3 425.3 640 428.5C666.7 431.7 693.3 419.3 720 415.8C746.7 412.3 773.3 417.7 800 414.3C826.7 411 853.3 399 880 395.8C906.7 392.7 933.3 398.3 946.7 401.2L960 404L960 541L946.7 541C933.3 541 906.7 541 880 541C853.3 541 826.7 541 800 541C773.3 541 746.7 541 720 541C693.3 541 666.7 541 640 541C613.3 541 586.7 541 560 541C533.3 541 506.7 541 480 541C453.3 541 426.7 541 400 541C373.3 541 346.7 541 320 541C293.3 541 266.7 541 240 541C213.3 541 186.7 541 160 541C133.3 541 106.7 541 80 541C53.3 541 26.7 541 13.3 541L0 541Z" fill="#e65067"></path><path d="M0 473L13.3 478.2C26.7 483.3 53.3 493.7 80 497.2C106.7 500.7 133.3 497.3 160 496.2C186.7 495 213.3 496 240 483.8C266.7 471.7 293.3 446.3 320 439.7C346.7 433 373.3 445 400 445.2C426.7 445.3 453.3 433.7 480 432.5C506.7 431.3 533.3 440.7 560 450.2C586.7 459.7 613.3 469.3 640 469.8C666.7 470.3 693.3 461.7 720 449.8C746.7 438 773.3 423 800 430.7C826.7 438.3 853.3 468.7 880 479.3C906.7 490 933.3 481 946.7 476.5L960 472L960 541L946.7 541C933.3 541 906.7 541 880 541C853.3 541 826.7 541 800 541C773.3 541 746.7 541 720 541C693.3 541 666.7 541 640 541C613.3 541 586.7 541 560 541C533.3 541 506.7 541 480 541C453.3 541 426.7 541 400 541C373.3 541 346.7 541 320 541C293.3 541 266.7 541 240 541C213.3 541 186.7 541 160 541C133.3 541 106.7 541 80 541C53.3 541 26.7 541 13.3 541L0 541Z" fill="#e04867"></path><path d="M0 472L13.3 467.7C26.7 463.3 53.3 454.7 80 460.5C106.7 466.3 133.3 486.7 160 496.8C186.7 507 213.3 507 240 504.5C266.7 502 293.3 497 320 485.2C346.7 473.3 373.3 454.7 400 446.5C426.7 438.3 453.3 440.7 480 441.3C506.7 442 533.3 441 560 442.5C586.7 444 613.3 448 640 451.2C666.7 454.3 693.3 456.7 720 466.8C746.7 477 773.3 495 800 498.2C826.7 501.3 853.3 489.7 880 477.3C906.7 465 933.3 452 946.7 445.5L960 439L960 541L946.7 541C933.3 541 906.7 541 880 541C853.3 541 826.7 541 800 541C773.3 541 746.7 541 720 541C693.3 541 666.7 541 640 541C613.3 541 586.7 541 560 541C533.3 541 506.7 541 480 541C453.3 541 426.7 541 400 541C373.3 541 346.7 541 320 541C293.3 541 266.7 541 240 541C213.3 541 186.7 541 160 541C133.3 541 106.7 541 80 541C53.3 541 26.7 541 13.3 541L0 541Z" fill="#da3f67"></path><path d="M0 478L13.3 481.8C26.7 485.7 53.3 493.3 80 492.3C106.7 491.3 133.3 481.7 160 479.7C186.7 477.7 213.3 483.3 240 489.5C266.7 495.7 293.3 502.3 320 504.7C346.7 507 373.3 505 400 496C426.7 487 453.3 471 480 462.7C506.7 454.3 533.3 453.7 560 463C586.7 472.3 613.3 491.7 640 494.8C666.7 498 693.3 485 720 475.8C746.7 466.7 773.3 461.3 800 460.2C826.7 459 853.3 462 880 471.3C906.7 480.7 933.3 496.3 946.7 504.2L960 512L960 541L946.7 541C933.3 541 906.7 541 880 541C853.3 541 826.7 541 800 541C773.3 541 746.7 541 720 541C693.3 541 666.7 541 640 541C613.3 541 586.7 541 560 541C533.3 541 506.7 541 480 541C453.3 541 426.7 541 400 541C373.3 541 346.7 541 320 541C293.3 541 266.7 541 240 541C213.3 541 186.7 541 160 541C133.3 541 106.7 541 80 541C53.3 541 26.7 541 13.3 541L0 541Z" fill="#d43667"></path><path d="M0 492L13.3 494.8C26.7 497.7 53.3 503.3 80 507C106.7 510.7 133.3 512.3 160 506.5C186.7 500.7 213.3 487.3 240 483C266.7 478.7 293.3 483.3 320 488.8C346.7 494.3 373.3 500.7 400 499C426.7 497.3 453.3 487.7 480 485.3C506.7 483 533.3 488 560 488.7C586.7 489.3 613.3 485.7 640 487.5C666.7 489.3 693.3 496.7 720 503C746.7 509.3 773.3 514.7 800 516.5C826.7 518.3 853.3 516.7 880 512.3C906.7 508 933.3 501 946.7 497.5L960 494L960 541L946.7 541C933.3 541 906.7 541 880 541C853.3 541 826.7 541 800 541C773.3 541 746.7 541 720 541C693.3 541 666.7 541 640 541C613.3 541 586.7 541 560 541C533.3 541 506.7 541 480 541C453.3 541 426.7 541 400 541C373.3 541 346.7 541 320 541C293.3 541 266.7 541 240 541C213.3 541 186.7 541 160 541C133.3 541 106.7 541 80 541C53.3 541 26.7 541 13.3 541L0 541Z" fill="#cd2d68"></path><path d="M0 497L13.3 501C26.7 505 53.3 513 80 516.7C106.7 520.3 133.3 519.7 160 517.7C186.7 515.7 213.3 512.3 240 509.7C266.7 507 293.3 505 320 505C346.7 505 373.3 507 400 509C426.7 511 453.3 513 480 517.2C506.7 521.3 533.3 527.7 560 529.2C586.7 530.7 613.3 527.3 640 524.3C666.7 521.3 693.3 518.7 720 514.2C746.7 509.7 773.3 503.3 800 505.7C826.7 508 853.3 519 880 524.8C906.7 530.7 933.3 531.3 946.7 531.7L960 532L960 541L946.7 541C933.3 541 906.7 541 880 541C853.3 541 826.7 541 800 541C773.3 541 746.7 541 720 541C693.3 541 666.7 541 640 541C613.3 541 586.7 541 560 541C533.3 541 506.7 541 480 541C453.3 541 426.7 541 400 541C373.3 541 346.7 541 320 541C293.3 541 266.7 541 240 541C213.3 541 186.7 541 160 541C133.3 541 106.7 541 80 541C53.3 541 26.7 541 13.3 541L0 541Z" fill="#c62368"></path></svg>